<svg width="71" height="72" viewBox="0 0 71 72" fill="none" xmlns="http://www.w3.org/2000/svg">
<path d="M30.8721 67.4986C30.8721 69.7077 32.6629 71.4986 34.8721 71.4986C37.0812 71.4986 38.8721 69.7077 38.8721 67.4986H30.8721ZM38.8721 4C38.8721 1.79086 37.0812 0 34.8721 0C32.6629 0 30.8721 1.79086 30.8721 4H38.8721ZM38.8721 67.4986V4H30.8721V67.4986H38.8721Z" fill="#FFA600"/>
<circle cx="48.6836" cy="20.6875" r="3.04137" fill="#4C6C8D" stroke="#4C6C8D" stroke-width="1.28451"/>
<circle cx="52.6836" cy="51.6875" r="3.04137" fill="#4C6C8D" stroke="#4C6C8D" stroke-width="1.28451"/>
<circle cx="21.6836" cy="57.6875" r="3.04137" fill="#4C6C8D" stroke="#4C6C8D" stroke-width="1.28451"/>
<circle cx="57.6836" cy="11.6875" r="3.04137" fill="#4C6C8D" stroke="#4C6C8D" stroke-width="1.28451"/>
<circle cx="18.6836" cy="20.6875" r="3.04137" fill="#4C6C8D" stroke="#4C6C8D" stroke-width="1.28451"/>
<circle cx="18.6836" cy="46.6875" r="3.04137" fill="#4C6C8D" stroke="#4C6C8D" stroke-width="1.28451"/>
<path d="M0 36C0 34.067 1.567 32.5 3.5 32.5H27C27.5523 32.5 28 32.9477 28 33.5V38.5C28 39.0523 27.5523 39.5 27 39.5H3.5C1.567 39.5 0 37.933 0 36Z" fill="#FFA600"/>
<path d="M70.5 36C70.5 34.067 68.933 32.5 67 32.5H43.5C42.9477 32.5 42.5 32.9477 42.5 33.5V38.5C42.5 39.0523 42.9477 39.5 43.5 39.5H67C68.933 39.5 70.5 37.933 70.5 36Z" fill="#FFA600"/>
</svg>
