<svg width="58" height="58" viewBox="0 0 58 58" fill="none" xmlns="http://www.w3.org/2000/svg">
<path d="M33.1914 57.9887C23.5285 57.9887 13.8543 57.9887 4.19141 57.9887C4.13477 57.8188 3.97617 57.8527 3.86289 57.8301C1.90313 57.2637 0.679688 55.9836 0.147266 54.0238C0.113281 53.9105 0.18125 53.7406 0 53.6953C0 53.548 0 53.3895 0 53.2422C0.18125 53.0723 0.113281 52.857 0.113281 52.6531C0.113281 36.8844 0.113281 21.1156 0.113281 5.34688C0.113281 5.1543 0.192578 4.92773 0 4.75781C0 4.61055 0 4.45195 0 4.30469C0.203906 4.19141 0.147266 3.97617 0.192578 3.80625C0.634375 2.18633 1.64258 1.06484 3.16055 0.396484C3.52305 0.237891 3.91953 0.135938 4.30469 0C13.9336 0 23.5625 0 33.1914 0C33.316 0.226563 33.5652 0.124609 33.7465 0.169922C36.0008 0.792969 37.4961 2.74141 37.5074 5.16563C37.5188 9.18711 37.5074 13.2086 37.5074 17.2301C37.5074 17.9664 37.7 18.7934 37.4395 19.4164C37.1676 20.0621 36.4426 20.5266 35.9102 21.0477C33.282 23.6531 30.6199 26.2246 28.6035 29.3625C27.7313 30.7105 26.927 32.0926 26.2246 33.5313C25.6016 34.8113 25.6016 36.1367 26.066 37.4961C25.1145 37.4961 24.2195 37.4848 23.3359 37.5074C23.0414 37.5188 22.8488 37.4281 22.6449 37.2242C21.7953 36.3633 20.9457 35.5023 20.0848 34.6641C19.3145 33.9164 18.3516 33.9277 17.5699 34.6641C17.4453 34.7773 17.3773 34.9926 17.1281 34.9586C17.1281 34.0977 17.1281 33.2594 17.1281 32.4098C17.1168 31.6734 16.7656 31.141 16.0973 30.8578C15.4289 30.5633 14.7832 30.6879 14.2621 31.1977C11.9738 33.4746 9.68555 35.7516 7.41992 38.0512C6.75156 38.7309 6.78555 39.7391 7.41992 40.3961C8.06563 41.0645 9.10781 41.1098 9.81016 40.4301C10.7277 39.5578 11.6113 38.6516 12.4949 37.7566C12.8688 37.3715 13.2426 36.9863 13.7184 36.5105C13.7184 37.3941 13.7297 38.1191 13.7184 38.8441C13.6957 39.7164 13.9449 40.4301 14.7945 40.7813C15.6555 41.1324 16.3238 40.7699 16.9129 40.1469C17.4566 39.5691 18.0344 39.0254 18.5895 38.459C18.7707 38.2664 18.884 38.2551 19.0879 38.459C19.6543 39.0594 20.266 39.6258 20.8438 40.2262C21.2969 40.702 21.8293 40.9285 22.509 40.9172C25.1938 40.9059 27.8672 40.9172 30.552 40.9059C30.8012 40.9059 31.0391 40.8719 31.2883 40.8492C32.5117 40.702 33.5879 40.1469 34.6301 39.5352C35.5816 38.9801 36.5219 38.4023 37.5074 37.8133C37.5188 37.9266 37.5301 37.9945 37.5301 38.0738C37.5301 43.0809 37.5414 48.0766 37.5188 53.0836C37.5074 55.2359 36.0234 57.1391 33.9844 57.7848C33.7125 57.8414 33.418 57.7961 33.1914 57.9887ZM15.4289 20.4926C17.6379 20.4926 19.8469 20.4926 22.0445 20.4926C23.1547 20.4926 23.9023 19.8129 23.9137 18.816C23.925 17.7852 23.166 17.1055 22.0219 17.0941C17.6266 17.0941 13.2313 17.0941 8.83594 17.0941C7.70313 17.0941 6.91016 17.8078 6.92148 18.8047C6.93281 19.8016 7.71445 20.4926 8.85859 20.4926C11.0449 20.4926 13.2426 20.4926 15.4289 20.4926ZM15.4629 27.2895C17.6492 27.2895 19.8355 27.2895 22.0219 27.2895C23.166 27.2895 23.9137 26.5984 23.9137 25.5676C23.9023 24.5707 23.1547 23.891 22.0445 23.891C17.6492 23.891 13.2539 23.891 8.85859 23.891C7.72578 23.891 6.93281 24.582 6.93281 25.5789C6.92148 26.5758 7.71445 27.2895 8.84727 27.2895C11.0449 27.2895 13.2539 27.2895 15.4629 27.2895ZM18.8273 10.184C19.9375 10.184 21.0477 10.1953 22.1691 10.184C23.1887 10.1727 23.9137 9.45899 23.925 8.50742C23.9363 7.52188 23.2 6.79688 22.1465 6.79688C19.9375 6.78555 17.7285 6.78555 15.5195 6.78555C14.4887 6.78555 13.7184 7.54453 13.7184 8.49609C13.7297 9.44766 14.5 10.1727 15.5422 10.184C16.641 10.1953 17.7285 10.184 18.8273 10.184ZM18.8273 51.1918C19.9375 51.1918 21.0477 51.2031 22.1691 51.1918C23.1887 51.1805 23.9137 50.4668 23.925 49.5152C23.9363 48.5297 23.2 47.8047 22.1465 47.8047C19.9375 47.7934 17.7398 47.7934 15.5309 47.8047C14.5 47.8047 13.7297 48.5637 13.7297 49.5152C13.741 50.4668 14.5113 51.1918 15.5535 51.2031C16.641 51.2031 17.7285 51.1918 18.8273 51.1918Z" fill="#FFA600"/>
<path d="M58.0004 12.6766C57.4907 14.1492 56.3012 15.0668 55.259 16.109C50.0708 21.2973 44.8825 26.4969 39.6602 31.6625C37.3379 33.9621 34.6418 35.7519 31.7079 37.2019C30.9149 37.5984 30.1672 37.5078 29.6122 36.964C29.0344 36.3976 28.9438 35.65 29.3516 34.8344C30.9602 31.5832 33.0672 28.6719 35.6387 26.1117C41.0762 20.6855 46.5477 15.282 51.9286 9.79921C53.9563 7.72616 57.4567 8.60976 57.9098 11.3851C57.9098 11.4078 57.9665 11.4191 58.0004 11.4418C58.0004 11.8496 58.0004 12.2574 58.0004 12.6766Z" fill="#4C6C8D"/>
</svg>
