<svg width="56" height="48" viewBox="0 0 56 48" fill="none" xmlns="http://www.w3.org/2000/svg">
<path d="M55.9889 43.6447C55.7921 43.7103 55.8249 43.9071 55.7812 44.0493C55.1469 46.0833 53.3316 47.4611 51.2211 47.472C48.8372 47.4939 46.4533 47.472 44.0694 47.472C44.474 45.1319 44.2444 42.8026 44.2772 40.4843C44.3209 36.985 44.2772 33.4966 44.2881 29.9973C44.2881 28.6413 44.135 27.3072 43.7304 26.0169C43.6867 25.8747 43.4898 25.6232 43.8398 25.6341C45.6988 25.6779 47.5687 25.4373 49.3949 25.7872C52.8177 26.4433 55.2563 28.9585 55.8905 32.3812C55.9015 32.4687 55.8796 32.5671 55.9999 32.5999C55.9889 36.2742 55.9889 39.9594 55.9889 43.6447Z" fill="#4C6C8D"/>
<path d="M0 32.4906C0.229643 32.2501 0.185901 31.922 0.262449 31.6377C1.22476 28.1274 4.30853 25.7107 7.95001 25.6342C9.29506 25.6014 10.6401 25.6342 11.9961 25.6232C12.3242 25.6232 12.4007 25.6779 12.2804 26.0169C11.843 27.3073 11.7118 28.6414 11.7118 29.9974C11.7227 35.0933 11.7227 40.2001 11.7118 45.2959C11.7118 46.0286 11.7774 46.7394 11.9633 47.4612C9.39348 47.4612 6.85647 47.5268 4.3304 47.4393C2.47139 47.3737 0.787346 45.9083 0.218707 44.104C0.16403 43.94 0.207772 43.7322 0 43.6447C0 39.9267 0 36.2087 0 32.4906Z" fill="#4C6C8D"/>
<path d="M27.9836 47.4708C24.2655 47.4708 20.5475 47.4708 16.8404 47.4708C15.5829 47.4708 14.9814 46.8584 14.9814 45.5899C14.9814 40.2753 14.9705 34.9498 14.9814 29.6352C14.9924 24.9658 18.4917 21.4447 23.1501 21.4228C26.387 21.4118 29.6348 21.4009 32.8826 21.4228C37.5083 21.4447 41.0185 24.9658 41.0295 29.6024C41.0404 34.9389 41.0295 40.2753 41.0295 45.6118C41.0295 46.8475 40.4171 47.4599 39.1923 47.4599C35.4524 47.4708 31.7125 47.4708 27.9836 47.4708Z" fill="#FFA600"/>
<path d="M27.9176 19.4335C22.4499 19.3351 18.1632 14.9172 18.2726 9.46043C18.371 4.12397 22.8435 -0.086144 28.3112 0.00133898C33.5274 0.0888219 37.8141 4.59419 37.7156 9.87598C37.6172 15.1906 33.1665 19.5319 27.9176 19.4335Z" fill="#FFA600"/>
<path d="M18.1856 16.3709C18.1418 20.3842 14.8612 23.621 10.8807 23.5882C6.87839 23.5554 3.63058 20.2639 3.65245 16.2834C3.67432 12.2264 6.9768 9.01139 11.0448 9.05513C15.0362 9.10981 18.2293 12.4014 18.1856 16.3709Z" fill="#4C6C8D"/>
<path d="M45.043 9.05471C49.0781 9.04378 52.3587 12.3244 52.3369 16.3267C52.315 20.3291 49.0563 23.5878 45.0649 23.5878C41.0734 23.5878 37.8256 20.34 37.8147 16.3267C37.7819 12.3244 41.0297 9.06565 45.043 9.05471Z" fill="#4C6C8D"/>
</svg>
