<svg width="57" height="56" viewBox="0 0 57 56" fill="none" xmlns="http://www.w3.org/2000/svg">
<path d="M0.0218708 39.16C0.317126 38.5149 0.28432 37.7931 0.42648 37.1151C1.76059 30.8273 5.06308 25.8517 10.3339 22.1884C10.651 21.9697 10.6511 21.8384 10.4542 21.5213C9.17478 19.4217 10.6401 16.666 13.1006 16.6441C18.6557 16.6004 24.2109 16.6004 29.7661 16.6441C32.2593 16.666 33.7247 19.4108 32.4234 21.5432C32.2156 21.8822 32.2812 22.0134 32.5765 22.1993C33.4185 22.7351 34.1949 23.3694 34.9604 24.0146C35.201 24.2114 35.2775 24.3098 34.9823 24.5723C32.4562 26.7922 32.2265 30.1821 34.4027 32.741C34.5995 32.9706 34.5995 33.08 34.4027 33.3206C32.4124 35.6607 32.4124 38.5695 34.4136 40.9644C34.5886 41.1722 34.5995 41.2815 34.4136 41.5002C32.4124 43.8951 32.4015 46.8039 34.3917 49.144C34.5886 49.3737 34.5995 49.494 34.4027 49.7236C33.2435 51.0359 32.7296 52.5559 32.992 54.3055C33.0467 54.6555 32.828 54.6445 32.6202 54.6992C30.6409 55.2897 28.6179 55.585 26.562 55.7927C25.9824 55.8474 25.381 55.7818 24.8233 56.0005C22.4503 56.0005 20.0883 56.0005 17.7153 56.0005C17.256 55.7709 16.742 55.8365 16.25 55.7927C13.5271 55.5303 10.8588 55.071 8.31088 54.0321C3.93673 52.2606 1.12634 49.1768 0.262449 44.4418C0.185901 44.0263 0.240578 43.5889 0 43.2061C0.0218707 41.8611 0.0218708 40.5051 0.0218708 39.16ZM23.0955 29.1433C23.0955 28.8152 23.1064 28.4871 23.0955 28.1591C23.0736 27.1968 22.3628 26.475 21.4552 26.475C20.5366 26.475 19.8368 27.1968 19.8258 28.17C19.8149 28.7715 19.793 29.3729 19.8368 29.9743C19.8586 30.368 19.7493 30.5649 19.3665 30.7508C17.431 31.6365 16.3265 33.6268 16.5561 35.7263C16.7749 37.7713 18.3167 39.4881 20.3507 39.9474C20.8319 40.0567 21.324 40.0458 21.8051 40.1442C22.6034 40.3083 23.172 41.0956 23.0846 41.872C22.9861 42.7359 22.2753 43.3702 21.4115 43.3592C20.5148 43.3483 19.9024 42.7031 19.8149 41.6971C19.7274 40.7238 18.9729 40.0239 18.0871 40.0896C17.1576 40.1552 16.5124 40.8769 16.5343 41.8611C16.578 43.5233 17.2669 44.9339 18.6995 45.7322C19.6399 46.2571 19.9242 46.8257 19.8477 47.8318C19.7711 48.7504 20.5804 49.4612 21.4771 49.4502C22.3738 49.4502 23.0736 48.7394 23.1064 47.8099C23.1174 47.4819 23.1392 47.1538 23.1064 46.8257C23.0736 46.4649 23.2049 46.3008 23.5438 46.1477C25.7637 45.1089 26.8573 42.6594 26.1683 40.3083C25.6762 38.657 24.1125 36.8746 21.4224 36.7871C20.4601 36.7543 19.8149 36.0325 19.8368 35.1249C19.8477 34.261 20.5804 33.5393 21.4443 33.5174C22.3191 33.5065 23.019 34.1845 23.1064 35.1358C23.2049 36.2075 23.9047 36.8527 24.878 36.7871C25.8293 36.7215 26.4636 35.9122 26.3761 34.8734C26.2339 33.244 25.545 31.8771 24.1125 31.1007C23.2049 30.6086 22.8987 30.0618 23.0955 29.1433Z" fill="#FFA600"/>
<path d="M22.1119 0.0109354C22.3853 0.196837 22.7243 0.153095 23.0195 0.262449C24.3537 0.75454 25.3269 1.62937 25.9065 2.91974C26.0377 3.22593 26.2017 3.30248 26.5079 3.30248C28.0389 3.29154 29.5698 3.29154 31.1008 3.29154C32.4677 3.29154 33.2222 4.28666 32.8067 5.58797C32.0193 8.05936 31.1992 10.5308 30.4118 13.0021C30.3244 13.2646 30.215 13.363 29.9198 13.363C24.2771 13.3521 18.6235 13.3521 12.9809 13.363C12.6856 13.363 12.5763 13.2646 12.4888 13.0021C11.6905 10.5089 10.8703 8.02656 10.083 5.53329C9.68933 4.2976 10.4439 3.30248 11.7452 3.29154C13.2543 3.28061 14.7743 3.28061 16.2834 3.29154C16.6442 3.29154 16.8301 3.215 17.0051 2.8432C17.7159 1.35599 18.886 0.426479 20.5153 0.0984183C20.5919 0.0874829 20.6575 0.0765476 20.6794 0C21.1605 0.0109354 21.6417 0.0109354 22.1119 0.0109354Z" fill="#FFA600"/>
<path d="M56.0109 29.5369C55.8468 29.6025 55.8687 29.7775 55.814 29.8978C55.3657 30.8382 54.6221 31.385 53.5832 31.385C48.6076 31.4068 43.643 31.3959 38.6674 31.385C37.2786 31.385 36.2069 30.2696 36.2179 28.9026C36.2288 27.5685 37.3005 26.475 38.6564 26.475C43.632 26.4641 48.5967 26.4641 53.5723 26.475C54.8736 26.475 55.5953 27.2842 55.9999 28.4324C56.0109 28.8042 56.0109 29.176 56.0109 29.5369Z" fill="#4C6C8D"/>
<path d="M56.0109 37.7381C55.8468 37.8037 55.8687 37.9787 55.814 38.0989C55.3657 39.0394 54.6221 39.5862 53.5832 39.5862C48.6076 39.608 43.643 39.5971 38.6674 39.5862C37.2786 39.5862 36.2069 38.4707 36.2179 37.1038C36.2288 35.7697 37.3005 34.6762 38.6564 34.6762C43.632 34.6652 48.5967 34.6652 53.5723 34.6762C54.8736 34.6762 55.5953 35.4854 55.9999 36.6336C56.0109 37.0054 56.0109 37.3772 56.0109 37.7381Z" fill="#4C6C8D"/>
<path d="M56.0109 45.9392C55.8468 46.0049 55.8687 46.1798 55.814 46.3001C55.3657 47.2406 54.6221 47.7873 53.5832 47.7873C48.6076 47.8092 43.643 47.7983 38.6674 47.7873C37.2786 47.7873 36.2069 46.6719 36.2179 45.305C36.2288 43.9709 37.3005 42.8773 38.6564 42.8773C43.632 42.8664 48.5967 42.8664 53.5723 42.8773C54.8736 42.8773 55.5953 43.6866 55.9999 44.8348C56.0109 45.2066 56.0109 45.5784 56.0109 45.9392Z" fill="#4C6C8D"/>
<path d="M38.0769 56.0002C37.9894 55.8362 37.8035 55.8471 37.6613 55.7815C36.6334 55.3003 36.032 54.1631 36.2616 53.0805C36.5022 51.9323 37.4536 51.0902 38.6018 51.0902C43.6102 51.0793 48.6186 51.0793 53.627 51.0902C54.6877 51.0902 55.5844 51.812 55.8906 52.829C55.9125 52.9055 55.8797 53.0149 55.9999 53.0477C55.9999 53.4085 55.9999 53.7803 55.9999 54.1412C55.6172 55.0488 54.9939 55.705 54.0316 56.0002C48.717 56.0002 43.4024 56.0002 38.0769 56.0002Z" fill="#4C6C8D"/>
</svg>
