<svg width="45" height="56" viewBox="0 0 45 56" fill="none" xmlns="http://www.w3.org/2000/svg">
<path d="M30.7125 0C31.1172 0 31.5109 0 31.9156 0C33.4797 0.514062 33.9719 1.64062 33.9719 3.22656C33.95 18.3641 33.9609 33.5016 33.9609 48.6281C33.9609 50.1594 33.9609 51.6906 33.9609 53.2219C33.9609 53.9547 33.7859 54.6219 33.2828 55.1797C32.9109 55.5953 32.4078 55.7812 31.9156 56C31.5109 56 31.1172 56 30.7125 56C30.4937 55.8031 30.2094 55.8359 29.9578 55.7812C25.1016 54.9172 20.2453 54.0641 15.3891 53.2109C11.1234 52.4562 6.85781 51.7016 2.59219 50.9688C0.787501 50.6625 0 49.7656 0 47.9281C0 34.6391 0 21.35 0 8.07188C0 7.92969 0 7.77656 0 7.63438C0.0546875 6.32188 0.875 5.35938 2.16563 5.12969C5.74219 4.49531 9.32969 3.86094 12.9172 3.22656C18.0031 2.32969 23.1 1.44375 28.1859 0.525C29.0281 0.371875 29.9031 0.328125 30.7125 0ZM18.6812 29.6844C18.6703 31.0734 19.7969 32.2328 21.1969 32.2547C22.5969 32.2766 23.7781 31.1063 23.7672 29.6953C23.7563 28.2953 22.6187 27.1578 21.2297 27.1578C19.8406 27.1469 18.6922 28.2953 18.6812 29.6844Z" fill="#FFA600"/>
<path d="M39.0354 28.0103C39.0354 20.5728 39.0354 13.1353 39.0244 5.69778C39.0244 5.20559 39.1447 5.04153 39.6479 5.07434C40.2494 5.11809 40.851 5.07434 41.4525 5.08528C43.1041 5.11809 44.1432 6.15715 44.1432 7.80872C44.1541 10.1822 44.1432 12.5447 44.1432 14.9181C44.1432 25.965 44.1432 37.0118 44.1432 48.0478C44.1432 49.0212 43.8697 49.8415 43.0603 50.4212C42.5791 50.7712 42.0432 50.8915 41.4635 50.8915C40.8072 50.8915 40.151 50.8697 39.4947 50.9025C39.101 50.9243 39.0244 50.7822 39.0244 50.4103C39.0354 46.3853 39.0354 42.3493 39.0354 38.3243C39.0354 34.9009 39.0354 31.4556 39.0354 28.0103Z" fill="#4C6C8D"/>
</svg>
