<svg width="56" height="56" viewBox="0 0 56 56" fill="none" xmlns="http://www.w3.org/2000/svg">
<path d="M55.9999 36.9589C55.6171 37.5275 55.0704 37.6588 54.4033 37.6588C52.2928 37.626 50.1823 37.6478 48.0717 37.6478C47.3719 37.6478 46.8032 37.2323 46.6173 36.5652C45.3379 31.8083 43.5882 27.2155 41.8058 22.6336C41.2153 21.1136 40.6138 19.5935 39.8155 18.161C39.4656 17.5486 39.8155 16.8925 40.5919 16.6082C43.0415 15.7115 45.5785 15.1428 48.1592 14.782C50.2697 14.4867 52.3912 14.3664 54.5236 14.3227C55.1907 14.3118 55.6827 14.5086 55.9999 15.0991C55.9999 22.3821 55.9999 29.665 55.9999 36.9589Z" fill="#4C6C8D"/>
<path d="M0.0109354 12.9016C0.349932 12.1252 0.940441 11.9393 1.76059 12.0158C4.8553 12.333 7.96095 12.5298 10.9791 13.339C11.8211 13.5687 12.6303 13.8749 13.363 14.3779C13.9207 14.7606 14.0629 15.2418 13.9754 15.876C13.7348 17.735 13.3849 19.5722 12.9584 21.3984C11.9742 25.6304 10.6729 29.7749 9.4919 33.9412C9.16384 35.1113 8.93419 35.2972 7.70943 35.2972C5.63171 35.2972 3.55399 35.2754 1.47627 35.3082C0.809217 35.3191 0.317126 35.1223 0 34.5318C0.0109354 27.3363 0.0109354 20.1189 0.0109354 12.9016Z" fill="#4C6C8D"/>
<path d="M20.5148 19.0039C19.4431 20.1521 18.5901 21.3222 17.9778 22.6454C17.4747 23.728 17.0592 24.8325 17.267 26.0572C17.4529 27.1726 18.109 27.9053 19.1916 28.288C21.827 29.2175 23.9703 28.4302 25.7637 26.429C26.0043 26.1556 26.2449 25.9916 26.6167 25.9479C27.1744 25.8932 27.6884 25.6854 28.1695 25.3683C28.3664 25.2371 28.5851 24.9637 28.935 25.248C32.5983 28.2771 36.382 31.1531 39.9141 34.3462C40.8108 35.1554 41.6419 36.0303 42.1887 37.1129C42.4074 37.5503 42.5167 37.9877 42.3418 38.4798C42.0137 39.4202 40.9639 39.6717 40.264 38.9719C38.1754 36.8832 36.0867 34.7946 33.9981 32.7059C33.6372 32.3451 33.2545 32.0607 32.6968 32.2466C31.7891 32.531 31.5704 33.5261 32.2812 34.2478C33.6481 35.6366 35.0369 37.0035 36.4148 38.3923C37.0928 39.0703 37.7708 39.7702 38.4706 40.4372C38.7112 40.6669 38.7112 40.809 38.4925 41.0605C37.8911 41.7604 37.1256 41.9026 36.2726 41.7932C35.9992 41.7604 35.8352 41.5526 35.6493 41.3777C33.845 39.5733 32.0406 37.769 30.2363 35.9647C29.8973 35.6257 29.5255 35.3851 29.0225 35.5054C28.1148 35.735 27.8196 36.7739 28.4976 37.4737C29.2959 38.3048 30.116 39.1031 30.9252 39.9123C31.7891 40.7762 32.6421 41.651 33.5279 42.4931C33.7903 42.7446 33.8012 42.9414 33.67 43.2476C33.1779 44.374 31.9094 44.6255 31.0455 43.7616C29.5911 42.3072 28.1367 40.8418 26.6714 39.3984C26.0153 38.7532 25.206 38.8407 24.7796 39.5624C24.4843 40.0654 24.5609 40.5466 25.0529 41.0387C26.223 42.2088 27.4041 43.3788 28.6179 44.5817C28.2461 44.7458 27.8961 44.6911 27.579 44.6364C26.6604 44.4724 25.7856 44.1771 25.0201 43.6194C21.4115 40.9621 17.8575 38.2392 14.4238 35.3632C13.6474 34.7071 13.0022 33.9088 12.2804 33.1871C12.1055 33.0121 12.193 32.859 12.2476 32.695C13.5599 28.8129 14.5769 24.8543 15.4736 20.8629C15.572 20.4146 15.6813 19.9772 15.747 19.5288C15.8016 19.1789 15.911 19.0039 16.3265 19.0148C17.6934 19.0258 19.0604 19.0039 20.5148 19.0039Z" fill="#FFA600"/>
<path d="M44.0803 34.8495C43.8834 34.8714 43.8178 34.7839 43.7413 34.6964C41.5214 32.061 38.8313 29.9395 36.1849 27.7634C34.315 26.2215 32.4997 24.614 30.6626 23.0393C30.0611 22.5253 29.3831 22.3613 28.6395 22.6128C28.0381 22.8206 27.4695 23.094 26.8789 23.3564C26.4962 23.5205 26.1025 23.6517 25.6761 23.6626C25.2277 23.6735 24.8887 23.9141 24.6372 24.275C24.3638 24.6796 24.0576 25.0733 23.6968 25.4123C22.7344 26.3199 21.6518 26.4949 20.4161 26.0575C19.8694 25.8606 19.7381 25.5216 19.8256 25.0077C19.9241 24.45 20.1209 23.9141 20.3943 23.422C21.7721 20.896 23.8061 18.9932 26.2556 17.5279C27.7538 16.6312 29.3722 16.7733 30.9469 17.3529C33.3964 18.2496 35.7913 19.3213 38.2955 20.0977C38.5798 20.1852 38.6345 20.4039 38.7329 20.6116C39.728 22.7222 40.5263 24.8983 41.3246 27.0854C42.2213 29.524 43.0852 31.9735 43.949 34.423C43.9928 34.5324 44.0256 34.6745 44.0803 34.8495Z" fill="#FFA600"/>
</svg>
