<svg width="83" height="83" viewBox="0 0 83 83" fill="none" xmlns="http://www.w3.org/2000/svg">
<path d="M35.3333 7H48.6667C50.5076 7 52 8.49238 52 10.3333C52 12.1743 50.5076 13.6667 48.6667 13.6667H35.3333C33.4924 13.6667 32 12.1743 32 10.3333C32 8.49238 33.4924 7 35.3333 7Z" fill="#2B2B29"/>
<path d="M18.5667 28.2994L16.2002 25.9329C14.8618 24.5945 14.7614 22.4311 16.097 21.0898V21.0898C17.4212 19.76 19.5458 19.8786 20.8729 21.2056L23.2667 23.5994C28.4333 19.4661 34.9333 16.9994 42 16.9994C58.5667 16.9994 72 30.4327 72 46.9994C72 63.566 58.6 76.9994 42 76.9994C25.4 76.9994 12 63.566 12 46.9994C12 39.9327 14.4667 33.4327 18.5667 28.2994ZM38.6667 46.9994C38.6667 48.8403 40.1591 50.3327 42 50.3327V50.3327C43.8409 50.3327 45.3333 48.8403 45.3333 46.9994V33.6661C45.3333 31.8251 43.8409 30.3327 42 30.3327V30.3327C40.1591 30.3327 38.6667 31.8251 38.6667 33.6661V46.9994Z" fill="#2B2B29"/>
</svg>
