<svg width="367" height="139" viewBox="0 0 367 139" fill="none" xmlns="http://www.w3.org/2000/svg">
<path opacity="0.7" d="M82.9063 139V140.343H84.2495V139H82.9063ZM0.92924 139H-0.413959V140.343H0.92924V139ZM0.92924 0.923363V-0.419838H-0.413959V0.923363H0.92924ZM82.9063 0.923363H84.2495V-0.419838H82.9063V0.923363ZM82.9063 30.862V32.2052H84.2495V30.862H82.9063ZM38.2345 30.862V29.5188H36.8913V30.862H38.2345ZM38.2345 52.584H36.8913V53.9272H38.2345V52.584ZM79.6008 52.584H80.944V51.2409H79.6008V52.584ZM79.6008 82.5227V83.8659H80.944V82.5227H79.6008ZM38.2345 82.5227V81.1795H36.8913V82.5227H38.2345ZM38.2345 108.589H36.8913V109.932H38.2345V108.589ZM82.9063 108.589H84.2495V107.246H82.9063V108.589ZM82.9063 137.657L0.92924 137.657V140.343L82.9063 140.343V137.657ZM2.27244 139L2.27244 0.923363H-0.413959L-0.413959 139H2.27244ZM0.92924 2.26656L82.9063 2.26656V-0.419838L0.92924 -0.419838V2.26656ZM81.5631 0.923363V30.862H84.2495V0.923363H81.5631ZM82.9063 29.5188H38.2345V32.2052H82.9063V29.5188ZM36.8913 30.862L36.8913 52.584H39.5777L39.5777 30.862H36.8913ZM38.2345 53.9272H79.6008V51.2409H38.2345V53.9272ZM78.2576 52.584L78.2576 82.5227H80.944L80.944 52.584H78.2576ZM79.6008 81.1795L38.2345 81.1795V83.8659L79.6008 83.8659V81.1795ZM36.8913 82.5227L36.8913 108.589H39.5777L39.5777 82.5227H36.8913ZM38.2345 109.932L82.9063 109.932V107.246L38.2345 107.246V109.932ZM81.5631 108.589V139H84.2495V108.589H81.5631ZM226.366 0.923363L227.643 1.34157L228.22 -0.419838H226.366V0.923363ZM181.128 139V140.343H182.101L182.404 139.418L181.128 139ZM137.211 139L135.934 139.417L136.237 140.343H137.211V139ZM92.1618 0.923363V-0.419838H90.3107L90.8849 1.33999L92.1618 0.923363ZM134.095 0.923363L135.392 0.574982L135.125 -0.419838H134.095V0.923363ZM152.889 70.9061L154.188 70.5658L154.186 70.5577L152.889 70.9061ZM155.25 81.106L153.936 81.3848L153.939 81.3964L153.941 81.4081L155.25 81.106ZM157.8 93.3837L156.479 93.6276L156.481 93.6374L156.483 93.6471L157.8 93.3837ZM159.311 103.395L157.972 103.493L160.648 103.525L159.311 103.395ZM162.995 81.3894L161.681 81.1066L161.68 81.1143L161.678 81.122L162.995 81.3894ZM165.45 71.2839L166.742 71.6529L166.744 71.645L166.746 71.637L165.45 71.2839ZM184.622 0.923363V-0.419838H183.596L183.326 0.570236L184.622 0.923363ZM225.09 0.505157L179.851 138.582L182.404 139.418L227.643 1.34157L225.09 0.505157ZM181.128 137.657H137.211V140.343H181.128V137.657ZM138.488 138.583L93.4388 0.506737L90.8849 1.33999L135.934 139.417L138.488 138.583ZM92.1618 2.26656L134.095 2.26656V-0.419838L92.1618 -0.419838V2.26656ZM132.798 1.27174L151.592 71.2545L154.186 70.5577L135.392 0.574982L132.798 1.27174ZM151.59 71.2464C152.275 73.8625 153.057 77.2399 153.936 81.3848L156.564 80.8273C155.68 76.6611 154.888 73.2385 154.188 70.5658L151.59 71.2464ZM153.941 81.4081C154.881 85.4815 155.727 89.5547 156.479 93.6276L159.121 93.1399C158.362 89.0276 157.508 84.9157 156.559 80.804L153.941 81.4081ZM156.483 93.6471C157.296 97.7138 157.789 100.99 157.972 103.493L160.651 103.297C160.456 100.637 159.941 97.2388 159.117 93.1203L156.483 93.6471ZM160.648 103.525C160.896 100.989 161.362 97.7191 162.052 93.7057L159.404 93.2506C158.709 97.2964 158.231 100.637 157.974 103.264L160.648 103.525ZM162.052 93.7057C162.742 89.6895 163.495 85.6732 164.311 81.6567L161.678 81.122C160.857 85.1647 160.099 89.2076 159.404 93.2506L162.052 93.7057ZM164.308 81.6722C165.186 77.5953 165.997 74.2583 166.742 71.6529L164.159 70.9149C163.392 73.5984 162.566 76.9983 161.681 81.1066L164.308 81.6722ZM166.746 71.637L185.918 1.27649L183.326 0.570236L164.154 70.9308L166.746 71.637ZM184.622 2.26656L226.366 2.26656V-0.419838L184.622 -0.419838V2.26656ZM326.099 139L324.8 139.341L325.063 140.343H326.099V139ZM319.299 113.122L320.598 112.781L320.335 111.779H319.299V113.122ZM274.438 113.122V111.779H273.41L273.141 112.772L274.438 113.122ZM267.449 139V140.343H268.478L268.746 139.35L267.449 139ZM226.461 139L225.183 138.585L224.612 140.343H226.461V139ZM271.51 0.356705V-0.986496H270.534L270.233 -0.0583878L271.51 0.356705ZM321.282 0.356705L322.558 -0.0630951L322.254 -0.986496H321.282V0.356705ZM366.898 139V140.343H368.754L368.174 138.58L366.898 139ZM311.554 82.5227V83.8659H313.296L312.854 82.1817L311.554 82.5227ZM305.604 59.8562L304.303 60.1898L304.305 60.1973L305.604 59.8562ZM302.866 49.373L301.566 49.7113L301.567 49.7157L302.866 49.373ZM299.277 35.2064L297.968 35.5084L297.97 35.5183L297.973 35.5282L299.277 35.2064ZM296.632 23.1176L297.949 22.8542L295.31 22.8797L296.632 23.1176ZM294.177 34.8286L292.868 34.5279L292.865 34.5411L294.177 34.8286ZM290.966 48.523L289.663 48.1972L289.66 48.2057L289.658 48.2143L290.966 48.523ZM288.132 59.8562L286.836 59.5051L286.833 59.5152L288.132 59.8562ZM282.182 82.5227L280.883 82.1817L280.441 83.8659H282.182V82.5227ZM327.398 138.659L320.598 112.781L318 113.464L324.8 139.341L327.398 138.659ZM319.299 111.779H274.438V114.466H319.299V111.779ZM273.141 112.772L266.153 138.65L268.746 139.35L275.735 113.473L273.141 112.772ZM267.449 137.657L226.461 137.657V140.343L267.449 140.343V137.657ZM227.738 139.415L272.788 0.77179L270.233 -0.0583878L225.183 138.585L227.738 139.415ZM271.51 1.6999L321.282 1.6999V-0.986496L271.51 -0.986496V1.6999ZM320.006 0.776505L365.623 139.42L368.174 138.58L322.558 -0.0630951L320.006 0.776505ZM366.898 137.657H326.099V140.343H366.898V137.657ZM312.854 82.1817L306.904 59.5152L304.305 60.1973L310.255 82.8637L312.854 82.1817ZM306.906 59.5226C306.275 57.0625 305.361 53.5645 304.164 49.0302L301.567 49.7157C302.763 54.248 303.675 57.7389 304.303 60.1898L306.906 59.5226ZM304.166 49.0346C302.971 44.4442 301.776 39.7275 300.581 34.8846L297.973 35.5282C299.17 40.3816 300.368 45.1093 301.566 49.7113L304.166 49.0346ZM300.586 34.9044C299.454 29.9998 298.576 25.9843 297.949 22.8542L295.315 23.3811C295.948 26.5472 296.833 30.5909 297.968 35.5084L300.586 34.9044ZM295.31 22.8797C294.749 25.9993 293.935 29.8804 292.868 34.5279L295.486 35.1294C296.559 30.4584 297.383 26.5322 297.954 23.3556L295.31 22.8797ZM292.865 34.5411C291.86 39.1246 290.793 43.6767 289.663 48.1972L292.269 48.8487C293.405 44.3027 294.479 39.7252 295.489 35.1162L292.865 34.5411ZM289.658 48.2143C288.59 52.7395 287.649 56.502 286.836 59.5051L289.429 60.2073C290.253 57.1661 291.201 53.373 292.273 48.8316L289.658 48.2143ZM286.833 59.5152L280.883 82.1817L283.482 82.8637L289.432 60.1973L286.833 59.5152ZM282.182 83.8659H311.554V81.1795H282.182V83.8659Z" fill="#94762B"/>
</svg>
