<svg width="83" height="83" viewBox="0 0 83 83" fill="none" xmlns="http://www.w3.org/2000/svg">
<path d="M26.8927 7.24688C25.248 7.84118 24.0318 8.94685 23.244 10.5501L22.8018 11.4622V15.7467V20.0311L23.244 20.9433C24.0595 22.588 25.2895 23.6798 26.9756 24.2465C27.7634 24.5229 28.109 24.5229 42.7728 24.4953L57.7684 24.4538L58.7359 23.9839C60.0074 23.362 61.0993 22.2701 61.7212 20.9986L62.1911 20.0311V15.7467V11.4622L61.7212 10.4948C61.0993 9.22326 60.0074 8.13142 58.7359 7.50948L57.7684 7.03957L42.7037 7.01193C28.109 6.98429 27.6114 6.98429 26.8927 7.24688Z" fill="#2B2B29"/>
<path d="M17.5905 17.1805C16.9548 17.8716 16.4849 18.5626 16.0426 19.4472C14.8955 21.8105 14.9784 19.7097 15.0199 46.149L15.0613 69.6444L15.4345 70.6671C16.0841 72.4224 16.7336 73.4175 18.0881 74.7581C19.5254 76.1954 20.9213 76.9832 22.7872 77.4531C23.8514 77.7157 24.3904 77.7296 42.4956 77.7296C60.6009 77.7296 61.1399 77.7157 62.2041 77.4531C62.7984 77.3011 63.8212 76.9141 64.4707 76.5962C65.4244 76.1263 65.8943 75.767 66.9585 74.689C68.0365 73.6248 68.3958 73.1549 68.8658 72.2012C69.1836 71.5516 69.5706 70.5289 69.7226 69.9346C69.9991 68.8704 69.9991 68.3314 69.9991 45.7344C69.9991 23.1373 69.9991 22.5983 69.7226 21.5341C69.3218 19.9171 68.4511 18.3138 67.3731 17.1529L66.4471 16.1716L66.3504 17.9545C66.226 20.152 66.0048 21.1886 65.3138 22.6398C64.3187 24.7682 62.6464 26.4681 60.5318 27.4909C58.1408 28.6656 59.2603 28.5965 42.4956 28.5965C25.731 28.5965 26.8505 28.6656 24.4595 27.4909C22.3587 26.4681 20.7831 24.9064 19.7604 22.7918C19.0141 21.2853 18.7653 20.1658 18.6271 17.8992L18.5165 16.1854L17.5905 17.1805ZM34.7145 36.2671C34.9633 36.4053 35.2535 36.7232 35.3779 36.9443C35.6267 37.428 35.6543 38.3679 35.4332 38.7825C35.1291 39.3491 29.6146 45.8726 29.1862 46.1766C28.6195 46.5912 27.7074 46.6051 27.0716 46.2043C26.4082 45.8035 23.9757 41.0076 23.9757 40.1093C23.9757 38.9898 24.8188 38.1605 25.9383 38.1744C26.8228 38.1882 27.2927 38.5613 27.9147 39.7638C28.2187 40.3442 28.509 40.828 28.5643 40.828C28.6057 40.828 29.5041 39.8052 30.5406 38.5613C31.5634 37.3175 32.5585 36.2395 32.7243 36.1565C33.2357 35.9078 34.2308 35.963 34.7145 36.2671ZM60.0204 39.4873C61.3196 40.1922 61.3611 42.0857 60.1034 42.9149C59.7302 43.1637 59.3294 43.1775 52.9995 43.1775C46.6695 43.1775 46.2687 43.1637 45.8956 42.9149C45.6882 42.7767 45.3842 42.4726 45.246 42.2653C44.7899 41.5605 44.9696 40.2475 45.5915 39.7361C46.2273 39.2109 46.6695 39.1695 53.2068 39.2109C59.0253 39.2386 59.6058 39.2662 60.0204 39.4873ZM26.9058 51.6911C27.1131 51.8017 27.5692 52.3131 27.9423 52.8521C28.3017 53.3773 28.6334 53.8057 28.6748 53.8057C28.7163 53.8057 29.048 53.3773 29.4073 52.8521C30.126 51.8017 30.665 51.4285 31.439 51.4285C32.5447 51.4285 33.3739 52.2716 33.3739 53.4187C33.3739 53.9992 33.2633 54.2065 32.2682 55.6301C31.6601 56.487 31.1626 57.2333 31.1626 57.2747C31.1626 57.3162 31.4252 57.7308 31.7569 58.1731C33.2633 60.2462 33.3739 60.4535 33.3739 61.1307C33.3739 62.2502 32.5585 63.0795 31.4528 63.0795C30.6374 63.0795 30.1122 62.7201 29.3659 61.6283C29.0203 61.1446 28.7163 60.7299 28.6748 60.7299C28.6334 60.7299 28.3293 61.1446 27.9838 61.6283C27.2375 62.7201 26.7123 63.0795 25.8968 63.0795C24.7912 63.0795 23.9757 62.2502 23.9757 61.1307C23.9757 60.4535 24.0863 60.2462 25.5928 58.1731C25.9245 57.7308 26.1871 57.3162 26.1871 57.2747C26.1871 57.2333 25.6895 56.487 25.0814 55.6301C24.1001 54.2342 23.9757 53.9854 23.9757 53.4464C23.9757 52.4375 24.3765 51.857 25.3164 51.5391C25.8692 51.3456 26.2838 51.3871 26.9058 51.6911ZM59.9928 55.6992C61.4163 56.3764 61.3472 58.5463 59.8684 59.2097C59.3294 59.4584 58.9009 59.4861 52.9995 59.4861C47.098 59.4861 46.6695 59.4584 46.1305 59.2097C44.6655 58.5463 44.5826 56.404 45.9923 55.6992C46.3793 55.5057 47.2638 55.478 52.9718 55.478C58.7075 55.478 59.5782 55.5057 59.9928 55.6992Z" fill="#2B2B29"/>
<path d="M48.2751 77.6729C64.1149 72.833 69.3581 55.3066 69.9998 47.1484V69.4231C68.8998 74.263 63.8582 76.9396 61.4749 77.6729H48.2751Z" fill="#2B2B29"/>
</svg>
